<svg data-v-0dd9719b="" version="1.0" xmlns="http://www.w3.org/2000/svg" xmlns:xlink="http://www.w3.org/1999/xlink" width="100%" height="100%" viewBox="0 0 340.000000 250.000000" preserveAspectRatio="xMidYMid meet" color-interpolation-filters="sRGB" style="margin: auto;"> <rect data-v-0dd9719b="" x="0" y="0" width="100%" height="100%" fill="#fff" fill-opacity="1" class="background"></rect> <rect data-v-0dd9719b="" x="0" y="0" width="100%" height="100%" fill="url(#watermark)" fill-opacity="1" class="watermarklayer"></rect> <g data-v-0dd9719b="" fill="#333" class="icon-text-wrapper icon-svg-group iconsvg" transform="translate(65.29499816894531,96.76789283752441)"><g class="iconsvg-imagesvg" transform="translate(0,0)"><g><rect fill="#333" fill-opacity="0" stroke-width="2" x="0" y="0" width="60" height="56.464211100863906" class="image-rect"></rect> <svg x="0" y="0" width="60" height="56.464211100863906" filtersec="colorsb8362761587" class="image-svg-svg primary" style="overflow: visible;"><svg xmlns="http://www.w3.org/2000/svg" viewBox="0.28515467047691345 0.27830439805984497 105.97604370117188 99.73069763183594"><path d="M91.2 16a53.15 53.15 0 0 1-1 75.14l-4.65-4.78A46.43 46.43 0 1 0 6.68 52.57a46.06 46.06 0 0 0 13.17 33l-4.78 4.67A53.17 53.17 0 0 1 91.2 16z" fill="#2b3990"></path><path d="M25.37 24.66A39.76 39.76 0 1 1 80.89 81.6l-4.65-4.78a33.09 33.09 0 1 0-46.83-.56l-4.78 4.66a39.79 39.79 0 0 1 .74-56.26z" fill="#2b3990"></path><path d="M34.68 34.21a26.43 26.43 0 1 1 36.9 37.84l-4.66-4.78A19.74 19.74 0 1 0 39 66.94l-4.81 4.66a26.44 26.44 0 0 1 .49-37.39z" fill="#2b3990"></path><path d="M44 43.76A13.09 13.09 0 1 1 62.27 62.5l-4.66-4.77a6.42 6.42 0 1 0-9.08-.11l-4.78 4.66A13.1 13.1 0 0 1 44 43.76z" fill="#2b3990"></path><path fill="#00aeef" d="M56.678 94.65l4.868-4.748 4.741 4.862-4.868 4.747zM38.09 94.553l4.868-4.747 4.74 4.86-4.868 4.748zM57.034 76.076l4.868-4.747 4.748 4.868-4.869 4.748zM66.147 85.413l4.868-4.748 4.74 4.862-4.868 4.747zM75.613 95.14l4.868-4.747 4.748 4.868-4.868 4.748zM48.142 66.954l4.868-4.748 4.74 4.861-4.868 4.748zM38.673 76.19l4.868-4.747 4.741 4.861-4.868 4.748zM52.44 80.57v-.01l-4.88 4.75.01.01 4.74 4.87 4.88-4.75-4.75-4.87zM29.207 85.43l4.869-4.747 4.74 4.861-4.868 4.748zM19.246 95.136l4.868-4.748 4.74 4.862-4.868 4.747z"></path></svg></svg> <!----></g></g> <g transform="translate(67,4.872108459472656)"><g data-gra="path-name" fill-rule="" class="tp-name iconsvg-namesvg"><g transform="scale(1)"><g><path d="M40.85-22.41L40.85-22.41Q40.85-19.52 40.18-16.84 39.51-14.16 38.26-11.81 37.01-9.46 35.21-7.51 33.42-5.55 31.18-4.16 28.95-2.76 26.31-1.98 23.68-1.21 20.73-1.21L20.73-1.21Q17.87-1.21 15.28-1.94 12.7-2.67 10.44-3.98 8.19-5.3 6.36-7.16 4.54-9.01 3.25-11.28 1.97-13.55 1.25-16.15 0.54-18.76 0.54-21.58L0.54-21.58Q0.54-24.34 1.21-26.99 1.87-29.64 3.13-31.99 4.38-34.34 6.16-36.31 7.93-38.28 10.14-39.7 12.35-41.13 14.92-41.93 17.49-42.72 20.34-42.72L20.34-42.72Q24.95-42.72 28.74-41.29 32.53-39.86 35.21-37.21 37.9-34.56 39.37-30.8 40.85-27.04 40.85-22.41ZM26.76-21.58L26.76-21.58Q26.76-22.95 26.36-24.23 25.96-25.52 25.2-26.52 24.44-27.52 23.31-28.14 22.19-28.75 20.73-28.75L20.73-28.75Q19.23-28.75 18.06-28.22 16.88-27.68 16.04-26.74 15.2-25.8 14.76-24.55 14.31-23.3 14.31-21.9L14.31-21.9Q14.31-20.57 14.69-19.23 15.08-17.9 15.84-16.82 16.6-15.74 17.73-15.08 18.85-14.41 20.34-14.41L20.34-14.41Q21.84-14.41 23.03-15 24.22-15.58 25.04-16.58 25.87-17.58 26.31-18.88 26.76-20.19 26.76-21.58ZM75.6-16.25L75.6-16.25Q75.6-11.9 74.09-8.74 72.59-5.59 69.97-3.54 67.35-1.49 63.84-0.52 60.33 0.44 56.3 0.44L56.3 0.44Q54.75 0.44 52.89 0.03 51.04-0.38 49.13-1 47.23-1.62 45.47-2.33 43.7-3.05 42.34-3.68L42.34-3.68 43.74-16.12Q46.43-14.5 49.72-13.66 53-12.82 56.18-12.82L56.18-12.82Q56.78-12.82 57.64-12.87 58.49-12.92 59.27-13.16 60.05-13.39 60.59-13.87 61.13-14.35 61.13-15.23L61.13-15.23Q61.13-15.84 60.75-16.27 60.37-16.69 59.76-16.96 59.16-17.23 58.4-17.38 57.64-17.52 56.91-17.58 56.18-17.65 55.54-17.65 54.91-17.65 54.53-17.65L54.53-17.65Q51.8-17.65 49.56-18.5 47.32-19.36 45.72-20.93 44.12-22.5 43.23-24.74 42.34-26.98 42.34-29.71L42.34-29.71Q42.34-33.45 43.85-36.42 45.35-39.39 47.88-41.47 50.4-43.54 53.67-44.66 56.94-45.77 60.43-45.77L60.43-45.77Q61.98-45.77 63.64-45.66 65.29-45.54 66.92-45.26 68.55-44.97 70.11-44.53 71.67-44.08 73.06-43.42L73.06-43.42 71.86-30.53Q69.7-31.26 67.33-31.75 64.97-32.25 62.71-32.25L62.71-32.25Q62.3-32.25 61.65-32.23 61-32.21 60.29-32.14 59.57-32.06 58.84-31.9 58.11-31.74 57.54-31.47 56.97-31.2 56.62-30.75 56.27-30.31 56.3-29.71L56.3-29.71Q56.34-29.01 56.83-28.63 57.32-28.25 58.1-28.07 58.87-27.9 59.81-27.9 60.75-27.9 61.67-27.95 62.59-27.99 63.38-28.04 64.17-28.09 64.68-28.06L64.68-28.06Q67.22-27.9 69.25-26.98 71.28-26.06 72.7-24.53 74.11-23.01 74.85-20.9 75.6-18.79 75.6-16.25ZM113.05-25.64L113.05-25.64Q113.05-22.88 112.67-20.12L112.67-20.12Q107.24-19.77 101.88-19 96.52-18.22 91.15-17.46L91.15-17.46Q91.98-15.17 93.74-13.81 95.5-12.44 97.94-12.44L97.94-12.44Q99.21-12.44 100.72-12.92 102.23-13.39 103.72-14.11 105.21-14.82 106.58-15.65 107.94-16.47 108.93-17.14L108.93-17.14 107.4-2.73Q106.16-1.78 104.72-1.11 103.28-0.44 101.72-0.03 100.17 0.38 98.58 0.57 96.99 0.76 95.47 0.76L95.47 0.76Q92.33 0.76 89.72-0.1 87.12-0.95 85.01-2.49 82.9-4.03 81.31-6.13 79.73-8.22 78.68-10.7 77.63-13.17 77.09-15.93 76.55-18.69 76.55-21.52L76.55-21.52Q76.55-24.47 77.09-27.42 77.63-30.37 78.73-33.1 79.82-35.83 81.49-38.17 83.15-40.5 85.38-42.24 87.6-43.99 90.41-44.97 93.22-45.96 96.61-45.96L96.61-45.96Q99.44-45.96 101.77-45.18 104.1-44.4 105.93-43.02 107.75-41.64 109.1-39.74 110.45-37.83 111.32-35.56 112.19-33.29 112.62-30.77 113.05-28.25 113.05-25.64ZM100.36-26.6L100.36-27.29Q100.36-28.18 100.17-29.12 99.98-30.06 99.55-30.82 99.12-31.58 98.42-32.07 97.72-32.56 96.67-32.56L96.67-32.56Q95.41-32.56 94.44-31.88 93.47-31.2 92.77-30.17 92.07-29.14 91.63-27.93 91.18-26.72 90.96-25.71L90.96-25.71 100.36-26.6ZM130.06-16.82L142.95-16.82 141.62-2.73 114.89-0.63 115.91-45.96 132.41-45.96 130.06-16.82Z" transform="translate(-0.5400000214576721, 45.959999084472656)"></path></g> <!----> <!----> <!----> <!----> <!----> <!----> <!----></g></g> <!----></g></g><defs v-gra="od"></defs></svg>